{"title":"WWE.Elimination.Chamber.2012.02.19.HDTV.XviD-FICEK9","uid":7129263,"size":1564787674,"categoryP":"video","categoryS":"tv_shows","magnet":"?xt=urn:btih:1e640bd75c619acd31ad2014c5306cad717351a8&amp;dn=WWE.Elimination.Chamber.2012.02.19.HDTV.XviD-FICEK9&amp;tr=udp%3A%2F%2Ftracker.openbittorrent.com%3A80&amp;tr=udp%3A%2F%2Fopen.demonii.com%3A1337&amp;tr=udp%3A%2F%2Ftracker.coppersurfer.tk%3A6969&amp;tr=udp%3A%2F%2Fexodus.desync.com%3A6969","seeders":0,"leechers":0,"uploader":"FICEK9","files":2,"time":1332634649,"description":"      Complete name : WWE.Elimination.Chamber.2012.02.19.HDTV.XviD-FICEK9.avi\n      Format : AVI\n      Format/Info : Audio Video Interleave\n      Format profile : OpenDML\n      File size : 1.46 GiB\n      Duration : 2h 47mn\n      Overall bit rate : 1 247 Kbps\n      Writing application : MEncoder SVN-r30881(20100311-gcc4.3.3)\n      Writing library : MPlayer\n   Video\n      Format : MPEG-4 Visual\n      Format profile : Streaming Video@L1\n      Format settings, BVOP : Yes\n      Format settings, QPel : No\n      Format settings, GMC : No warppoints\n      Format settings, Matrix : Default (H.263)\n      Codec ID : XVID\n      Codec ID/Hint : XviD\n      Duration : 1h 54mn\n      Bit rate : 1 109 Kbps\n      Width : 624 pixels\n      Height : 352 pixels\n      Display aspect ratio : 16/9\n      Frame rate : 29.970 fps\n      Resolution : 24 bits\n      Colorimetry : 4:2:0\n      Scan type : Progressive\n      Bits/(Pixel*Frame) : 0.245\n      Stream size : 1.29 GiB (89%)\n      Writing library : XviD 1.2.1 (UTC 2008-12-04)\n   Audio\n      Format : MPEG Audio\n      Format version : Version 1\n      Format profile : Layer 3\n      Codec ID : 55\n      Codec ID/Hint : MP3\n      Duration : 2h 47mn\n      Bit rate mode : Variable\n      Bit rate : 124 Kbps\n      Channel(s) : 2 channels\n      Sampling rate : 48.0 KHz\n      Resolution : 16 bits\n      Stream size : 148 MiB (10%)\n      Alignment : Aligned on interleaves\n      Interleave, duration : 24 ms (0.72 video frame)\n      Interleave, preload duration : 478 ms","torrent":{"xt":"urn:btih:1e640bd75c619acd31ad2014c5306cad717351a8","amp;dn":"WWE.Elimination.Chamber.2012.02.19.HDTV.XviD-FICEK9","amp;tr":["udp%3A%2F%2Ftracker.openbittorrent.com%3A80","udp%3A%2F%2Fopen.demonii.com%3A1337","udp%3A%2F%2Ftracker.coppersurfer.tk%3A6969","udp%3A%2F%2Fexodus.desync.com%3A6969"],"infoHash":"1e640bd75c619acd31ad2014c5306cad717351a8","infoHashBuffer":{"type":"Buffer","data":[30,100,11,215,92,97,154,205,49,173,32,20,197,48,108,173,113,115,81,168]},"announce":[],"urlList":[]}}